<?xml version="1.0" encoding="utf-8"?>
<!-- Generator: Adobe Illustrator 21.0.0, SVG Export Plug-In . SVG Version: 6.00 Build 0)  -->
<svg version="1.1" id="Layer_1" xmlns="http://www.w3.org/2000/svg" xmlns:xlink="http://www.w3.org/1999/xlink" x="0px" y="0px"
	 viewBox="0 0 134 60" style="enable-background:new 0 0 134 60;" xml:space="preserve">
<style type="text/css">
	.st0{fill:#F15A22;}
	.st1{fill:#1E398D;}
	.st2{fill:#034694;}
	.st3{fill:#231F20;}
</style>
<g>
	<g>
		<path class="st0" d="M18.2,37.1c9.6-3.4,12.5-12.9,6.1-19.5c2.7,0.9,5.2,2.6,7.2,5c5.5,6.7,4.6,16.6-2.1,22.2L18.2,37.1z"/>
		<path class="st0" d="M41.4,19.3c-9.7-8.2-21.8-5.5-25,5.6c-0.7-3.5-0.5-7.3,0.9-10.9C21.2,3.9,32.5-1.3,42.7,2.4L41.4,19.3z"/>
		<path class="st0" d="M12,15.3c-1.5,8,3.9,13.9,11.1,12.1c-1.7,1.5-3.9,2.6-6.3,3C10,31.4,3.5,26.8,2.3,20L12,15.3z"/>
	</g>
	<path class="st1" d="M56.9,44.8c-3.6,0-7.5-1.2-11.2-3.2l2.3-4.6c2.6,1.5,6.2,3.1,9.5,3.1c2.8,0,4.7-1.7,4.7-4.1
		c0-2.3-1.4-3.4-4.7-4.1l-3.5-0.8c-4.4-0.9-7-3.9-7-8c0-5.5,4.4-9.3,10.9-9.3c4,0,7.2,1.2,9.7,2.5l-2.1,4.4
		c-2.7-1.4-4.9-2.1-7.2-2.1c-2.7,0-4.5,1.5-4.5,3.8c0,1.8,1,2.7,3.9,3.5l3.6,0.9c5.9,1.5,7.5,4.7,7.5,8.2
		C68.7,40.8,63.9,44.8,56.9,44.8z"/>
	<path class="st1" d="M105.6,44.7V23.9c0-3.5-0.8-4.5-3.1-4.5c-2.2,0-4.3,1.5-6.4,3.5v21.9h-6.2V24c0-3.5-0.8-4.6-3.3-4.6
		c-1.8,0-4,1-6.2,3v22.3h-6.4V23.1c0-3.7-0.4-6-1.1-7.6l5.9-1.7c0.6,0.9,1,2.2,1.1,3.9c2.4-2.4,5.2-3.8,8-3.8c2.7,0,5,0.9,7.2,4.4
		c2.9-3,5.8-4.4,9-4.4c4.9,0,7.9,2.6,7.9,8.8v22H105.6z"/>
	<path class="st1" d="M124.4,44.6c-6.4,0-6.4-5.8-6.4-8.3V11.4c0-4-0.2-6.1-0.6-8.6l6.5-1.4c0.5,1.8,0.5,4.2,0.5,8v24.8
		c0,3.9,0.2,4.6,0.6,5.3c0.4,0.5,1.3,0.8,2.1,0.5l1,3.9C127.1,44.4,125.9,44.6,124.4,44.6z"/>
	<g>
		<path class="st2" d="M129,7c-1.5,0-2.8-1.2-2.8-2.8c0-1.5,1.2-2.8,2.8-2.8c1.5,0,2.7,1.2,2.7,2.8C131.7,5.7,130.5,7,129,7z M129,2
			c-1.2,0-2.1,1-2.1,2.2c0,1.2,0.9,2.2,2.1,2.2c1.2,0,2.1-1,2.1-2.2C131.1,3,130.2,2,129,2z M129.2,2.6c0.6,0,0.9,0.4,0.9,0.9
			c0,0.5-0.3,0.8-0.7,0.9c0.1,0.1,0.1,0.1,0.1,0.1c0.2,0.2,0.7,1.2,0.7,1.2h-0.7c-0.1-0.2-0.2-0.3-0.3-0.5c-0.3-0.6-0.4-0.7-0.5-0.8
			c0,0-0.1,0-0.1,0v1.3H128V2.6H129.2z M128.6,4h0.2c0.3,0,0.4,0,0.5-0.1c0.1-0.1,0.1-0.2,0.1-0.3c0-0.2-0.1-0.3-0.2-0.4
			c-0.1,0-0.2,0-0.4,0h-0.2V4z"/>
	</g>
	<g>
		<path class="st3" d="M23.6,56.5v-7.8h0.8v7.8H23.6z"/>
		<path class="st3" d="M30,56.5v-3.3c0-0.9-0.5-1.4-1.3-1.4c-0.8,0-1.3,0.5-1.3,1.4v3.3h-0.8v-5.4h0.8v0.6c0.4-0.4,0.9-0.7,1.5-0.7
			c0.6,0,1,0.2,1.4,0.5c0.4,0.4,0.6,0.9,0.6,1.5v3.4H30z"/>
		<path class="st3" d="M36.1,56.5v-3.3c0-0.9-0.5-1.4-1.3-1.4c-0.8,0-1.3,0.5-1.3,1.4v3.3h-0.8v-5.4h0.8v0.6
			c0.4-0.4,0.9-0.7,1.5-0.7c0.6,0,1,0.2,1.4,0.5c0.4,0.4,0.6,0.9,0.6,1.5v3.4H36.1z"/>
		<path class="st3" d="M42.2,56c-0.4,0.4-0.9,0.6-1.5,0.6c-0.7,0-1.2-0.2-1.5-0.6c-0.5-0.6-0.7-1.3-0.7-2.1c0-0.8,0.1-1.6,0.7-2.1
			c0.4-0.4,0.9-0.6,1.5-0.6c0.7,0,1.2,0.2,1.5,0.6c0.5,0.6,0.7,1.3,0.7,2.1C42.9,54.6,42.8,55.4,42.2,56z M41.7,52.2
			c-0.3-0.3-0.6-0.4-1-0.4c-0.4,0-0.7,0.1-1,0.4c-0.4,0.4-0.4,1.1-0.4,1.7c0,0.6,0,1.3,0.4,1.7c0.3,0.3,0.6,0.4,1,0.4
			c0.4,0,0.7-0.1,1-0.4c0.4-0.4,0.4-1.1,0.4-1.7C42.1,53.2,42.1,52.6,41.7,52.2z"/>
		<path class="st3" d="M46.3,56.5h-0.7l-2-5.4h0.9l1.5,4.3l1.5-4.3h0.8L46.3,56.5z"/>
		<path class="st3" d="M52.3,56.5V56c-0.4,0.4-0.8,0.6-1.5,0.6c-0.7,0-1.2-0.1-1.5-0.5c-0.3-0.3-0.4-0.7-0.4-1.1
			c0-0.9,0.7-1.5,1.9-1.5h1.6v-0.5c0-0.8-0.4-1.2-1.4-1.2c-0.7,0-1,0.2-1.4,0.6L49,51.9c0.5-0.6,1-0.8,1.9-0.8
			c1.4,0,2.1,0.6,2.1,1.8v3.6H52.3z M52.3,54h-1.5c-0.8,0-1.2,0.3-1.2,0.9s0.4,0.9,1.2,0.9c0.5,0,0.9,0,1.2-0.4
			c0.2-0.2,0.3-0.5,0.3-0.9V54z"/>
		<path class="st3" d="M56.5,56.5c-0.9,0-1.4-0.6-1.4-1.4v-3.3h-0.7v-0.6h0.7v-1.7h0.8v1.7H57v0.6h-1.1V55c0,0.5,0.2,0.8,0.7,0.8H57
			v0.7H56.5z"/>
		<path class="st3" d="M58.5,49.6v-0.9h0.9v0.9H58.5z M58.6,56.5v-5.4h0.8v5.4H58.6z"/>
		<path class="st3" d="M64.8,56c-0.4,0.4-0.9,0.6-1.5,0.6c-0.7,0-1.2-0.2-1.5-0.6c-0.5-0.6-0.7-1.3-0.7-2.1c0-0.8,0.1-1.6,0.7-2.1
			c0.4-0.4,0.9-0.6,1.5-0.6c0.7,0,1.2,0.2,1.5,0.6c0.5,0.6,0.7,1.3,0.7,2.1C65.4,54.6,65.3,55.4,64.8,56z M64.2,52.2
			c-0.2-0.3-0.6-0.4-1-0.4c-0.4,0-0.7,0.1-1,0.4c-0.4,0.4-0.4,1.1-0.4,1.7c0,0.6,0,1.3,0.4,1.7c0.3,0.3,0.6,0.4,1,0.4
			c0.4,0,0.7-0.1,1-0.4c0.4-0.4,0.4-1.1,0.4-1.7C64.7,53.2,64.6,52.6,64.2,52.2z"/>
		<path class="st3" d="M70.6,56.5v-3.3c0-0.9-0.5-1.4-1.3-1.4c-0.8,0-1.3,0.5-1.3,1.4v3.3h-0.8v-5.4h0.8v0.6
			c0.4-0.4,0.9-0.7,1.5-0.7c0.6,0,1,0.2,1.4,0.5c0.4,0.4,0.6,0.9,0.6,1.5v3.4H70.6z"/>
		<path class="st3" d="M79,56.5V56c-0.4,0.4-0.8,0.6-1.5,0.6c-0.7,0-1.2-0.1-1.5-0.5c-0.3-0.3-0.4-0.7-0.4-1.1
			c0-0.9,0.7-1.5,1.9-1.5H79v-0.5c0-0.8-0.4-1.2-1.4-1.2c-0.7,0-1,0.2-1.4,0.6l-0.5-0.5c0.5-0.6,1-0.8,1.9-0.8
			c1.4,0,2.1,0.6,2.1,1.8v3.6H79z M79,54h-1.5c-0.8,0-1.2,0.3-1.2,0.9s0.4,0.9,1.2,0.9c0.5,0,0.9,0,1.2-0.4c0.2-0.2,0.3-0.5,0.3-0.9
			V54z"/>
		<path class="st3" d="M85.1,56.5v-3.3c0-0.9-0.5-1.4-1.3-1.4c-0.8,0-1.3,0.5-1.3,1.4v3.3h-0.8v-5.4h0.8v0.6
			c0.4-0.4,0.9-0.7,1.5-0.7c0.6,0,1,0.2,1.4,0.5c0.4,0.4,0.6,0.9,0.6,1.5v3.4H85.1z"/>
		<path class="st3" d="M91,56.5v-0.6c-0.4,0.6-0.9,0.7-1.5,0.7c-0.5,0-1-0.2-1.3-0.5c-0.5-0.5-0.7-1.4-0.7-2.3
			c0-0.8,0.1-1.7,0.7-2.3c0.3-0.3,0.8-0.5,1.3-0.5c0.6,0,1.1,0.1,1.5,0.7v-3h0.8v7.8H91z M89.7,51.8c-1.2,0-1.4,1-1.4,2.1
			c0,1,0.2,2,1.4,2c1.2,0,1.3-1,1.3-2C91,52.8,90.8,51.8,89.7,51.8z"/>
		<path class="st3" d="M100.1,56.1c-0.3,0.3-0.8,0.5-1.3,0.5c-0.6,0-1.1-0.1-1.5-0.7v0.6h-0.8v-7.8h0.8v3c0.4-0.6,0.9-0.7,1.5-0.7
			c0.5,0,1,0.2,1.3,0.5c0.5,0.5,0.7,1.4,0.7,2.3C100.7,54.7,100.6,55.6,100.1,56.1z M98.6,51.8c-1.2,0-1.4,1-1.4,2.1
			c0,1,0.2,2,1.4,2c1.2,0,1.3-1,1.3-2C100,52.8,99.8,51.8,98.6,51.8z"/>
		<path class="st3" d="M102.9,54c0,1.2,0.6,1.9,1.6,1.9c0.6,0,1-0.2,1.4-0.6l0.5,0.5c-0.5,0.5-1,0.8-2,0.8c-1.4,0-2.3-0.9-2.3-2.7
			c0-1.7,0.8-2.7,2.2-2.7c1.4,0,2.2,1,2.2,2.6V54H102.9z M105.6,52.5c-0.2-0.5-0.7-0.8-1.3-0.8c-0.6,0-1,0.3-1.3,0.8
			c-0.1,0.3-0.1,0.5-0.2,0.9h2.8C105.7,53,105.7,52.8,105.6,52.5z"/>
		<path class="st3" d="M109.4,57.8c-0.1,0.3-0.2,0.5-0.4,0.6c-0.3,0.3-0.7,0.4-1,0.4h-0.3v-0.7h0.2c0.5,0,0.7-0.2,0.9-0.7l0.4-1
			l-1.9-5.3h0.9l1.5,4.3l1.5-4.3h0.8L109.4,57.8z"/>
		<path class="st3" d="M116.3,56c-0.4,0.4-0.9,0.6-1.5,0.6c-0.7,0-1.2-0.2-1.5-0.6c-0.5-0.6-0.7-1.3-0.7-2.1c0-0.8,0.1-1.6,0.7-2.1
			c0.4-0.4,0.9-0.6,1.5-0.6c0.7,0,1.2,0.2,1.5,0.6c0.5,0.6,0.7,1.3,0.7,2.1C117,54.6,116.8,55.4,116.3,56z M115.7,52.2
			c-0.3-0.3-0.6-0.4-1-0.4c-0.4,0-0.7,0.1-1,0.4c-0.4,0.4-0.4,1.1-0.4,1.7c0,0.6,0,1.3,0.4,1.7c0.3,0.3,0.6,0.4,1,0.4
			c0.4,0,0.7-0.1,1-0.4c0.4-0.4,0.4-1.1,0.4-1.7C116.2,53.2,116.1,52.6,115.7,52.2z"/>
		<path class="st3" d="M122.1,56.5v-3.3c0-0.9-0.5-1.4-1.3-1.4c-0.8,0-1.3,0.5-1.3,1.4v3.3h-0.8v-5.4h0.8v0.6
			c0.4-0.4,0.9-0.7,1.5-0.7c0.6,0,1,0.2,1.4,0.5c0.4,0.4,0.6,0.9,0.6,1.5v3.4H122.1z"/>
		<path class="st3" d="M128,56.5v-0.6c-0.4,0.6-0.9,0.7-1.5,0.7c-0.5,0-1-0.2-1.3-0.5c-0.5-0.5-0.7-1.4-0.7-2.3
			c0-0.8,0.1-1.7,0.7-2.3c0.3-0.3,0.8-0.5,1.3-0.5c0.6,0,1.1,0.1,1.5,0.7v-3h0.8v7.8H128z M126.6,51.8c-1.2,0-1.4,1-1.4,2.1
			c0,1,0.2,2,1.4,2c1.2,0,1.3-1,1.3-2C128,52.8,127.8,51.8,126.6,51.8z"/>
		<path class="st3" d="M130.7,56.5v-1h1v1H130.7z"/>
	</g>
</g>
</svg>
