<?xml version="1.0" encoding="UTF-8"?>
<!DOCTYPE svg PUBLIC "-//W3C//DTD SVG 1.1//EN" "http://www.w3.org/Graphics/SVG/1.1/DTD/svg11.dtd">
<!-- Creator: CorelDRAW -->
<svg xmlns="http://www.w3.org/2000/svg" xml:space="preserve" viewBox="0 0 512 512" version="1.1" style="shape-rendering:geometricPrecision; text-rendering:geometricPrecision; image-rendering:optimizeQuality; fill-rule:evenodd; clip-rule:evenodd"
viewBox="0 0 16535.43 11692.91"
 xmlns:xlink="http://www.w3.org/1999/xlink"
 xmlns:xodm="http://www.corel.com/coreldraw/odm/2003">
 <defs>
  <style type="text/css">
    .str0 {stroke:#373435;stroke-width:6.94;stroke-miterlimit:2.61313}
    .fil0 {fill:#373435}
  </style>
 </defs>
 <g id="Layer_x0020_1">
  <path class="fil0" d="M 157.8 0 l 216.5 0 c 27.2 0 49.4 22.2 49.4 49.4 l 0 358.7 l -21.4 -21.4 l 0 -327.1 c 0 -2.2 -1.8 -3.9 -3.9 -3.9 l -264.7 0 c -2.2 0 -3.9 1.8 -3.9 3.9 l 0 54.5 l -21.4 -21.4 l 0 -43.4 c 0 -27.2 22.2 -49.4 49.4 -49.4 z m 260.6 483.8 c -8.2 16.1 -24.9 27.2 -44.1 27.2 l -216.5 0 c -27.2 0 -49.4 -22.2 -49.4 -49.4 l 0 -287.7 l 21.4 21.4 l 0 232.4 c 0 2.2 1.8 3.9 3.9 3.9 l 232.4 0 l 52.3 52.3 z m -152.3 -43.4 c 16.5 0 29.9 13.4 29.9 29.9 c 0 16.5 -13.4 29.9 -29.9 29.9 c -16.5 0 -29.9 -13.4 -29.9 -29.9 c 0 -16.5 13.4 -29.9 29.9 -29.9 z m -42.4 -418.2 l 84.7 0 c 2.2 0 3.9 1.8 3.9 3.9 l 0 2.1 c 0 2.2 -1.8 3.9 -3.9 3.9 l -84.7 0 c -2.2 0 -3.9 -1.8 -3.9 -3.9 l 0 -2.1 c 0 -2.2 1.8 -3.9 3.9 -3.9 z M 28.4 12.8 l 471 471 a 1.3 1.3 90 0 1 -20.5 20.5 l -471 -471 a 0.3 0.3 90 0 1 20.5 -20.5 z"/>
 </g>
</svg>
