<svg xmlns="http://www.w3.org/2000/svg" height="1430" width="2000">
<!-- <svg xmlns="http://www.w3.org/2000/svg" viewBox="0 0 2000 1500"> -->
  <defs>
    <style>
      @keyframes blink {
        100%,
        0% {
          fill: #DBE2EF;
        }

        60% {
          fill: #2D4;
        }
      }

      * {
        stroke: white;
        fill: transparent;
        stroke-width: 6;
        stroke-linecap: square;
        stroke-linejoin: initial;
      }

      text {
        font-family: Arial, Helvetica, sans-serif;
      }

      .hide {
        visibility: hidden;
      }

      .particle {
        fill: #FFFA;
        stroke: #FFFA;
      }

      .head rect {
        fill: #6a98ce;
        /* stroke: #244770; */
        stroke: transparent;
      }

      .stack path {
        fill: #DBE2EF;
        /* stroke: #244770; */
        stroke: transparent;
      }

      .head text {
        stroke-width: 0;
        fill: white;
        font-size: 22pt;
        font-weight: 700;
      }

      .mill rect,
      .economizer rect,
      .air-preheater rect {
        fill: #DBE2EF;
        stroke: #DBE2EF;
      }

      .furnace .path1 {
        stroke: #DBE2EF;
        fill: #DBE2EF;
      }

      .furnace .path2 {
        stroke: #333854;
        fill: transparent;
        stroke-linejoin: initial;
        stroke-width: 26;
      }

      .mill-to-furnace path {
        stroke: #8ca9ca;
        stroke: rgba(224, 207, 158, 0.568);
        stroke-width: 14;
        stroke-linejoin: round;
      }

      .text-primary {
        stroke-width: 0;
        fill: #333854;
        font-family: Arial, Helvetica, sans-serif;
      }

      .text-secondary {
        stroke-width: 0;
        fill: #cdcddd !important;
        font-family: Arial, Helvetica, sans-serif;
      }

      .fs-normal {
        font-size: 18pt;
      }

      .fs-large {
        font-size: 22pt;
        font-weight: bolder;
      }

      .fs-larger {
        font-size: 24pt;
        font-weight: bolder;
      }

      .text-larger {
        font-size: 24pt !important;
        font-weight: bolder;
      }

      .pump path {
        stroke: #DBE2EF;
        fill: #DBE2EF;
      }

      .pump rect {
        stroke: #333854;
        fill: #333854;
        stroke-width: 0;
      }

      .pump .frame {
        stroke: #df3232;
        fill: #df3232;
        stroke-width: 0;
      }

      .pump.enable .frame {
        stroke: #2bb82b;
        fill: #2bb82b;
        animation: blink 0.8s infinite;
      }

      .pump .fan * {
        stroke: #292931;
        fill: #292931;
        stroke-width: 0;
      }

      .airflow path {
        stroke: #1180ff33;
        stroke-width: 14;
        stroke-linejoin: round;
      }

      .airflow .cold {
        stroke: #70b3ff85;
      }

      .airflow .hot {
        stroke: #ee725385;
      }
    </style>
  </defs>

  <rect width="100%" height="100%" style="fill: #292931;"/>

  <g class="head">
    <rect x="40" y="10" width="450" height="80" />
    <rect x="530" y="10" width="450" height="80" />
    <rect x="1020" y="10" width="450" height="80" />
    <rect x="1510" y="10" width="450" height="80" />

    <rect x="40" y="170" width="450" height="60" />
    <rect x="530" y="170" width="450" height="60" />
    <rect x="1020" y="170" width="450" height="60" />
    <rect x="1510" y="170" width="450" height="60" />

    <rect x="40" y="260" width="450" height="60" />
    <rect x="530" y="260" width="450" height="60" />
    <rect x="1020" y="260" width="450" height="60" />
    <rect x="1510" y="260" width="450" height="60" />

    <text x="60" y="60">Active Power :</text>
    <text x="550" y="60">All Wind :</text>
    <text x="1040" y="60">Tot. Coal Flow :</text>
    <text x="1530" y="60">Boiler Eff. :</text>

    <text x="60" y="210">Upper 1 :</text>
    <text x="550" y="210">Upper 2 :</text>
    <text x="1040" y="210">Upper 3 :</text>
    <text x="1530" y="210">Upper 4 :</text>

    <text x="60" y="300">Lower 1 :</text>
    <text x="550" y="300">Lower 2 :</text>
    <text x="1040" y="300">Lower 3 :</text>
    <text x="1530" y="300">Lower 4 :</text>

    <text text-anchor="end" x="470" y="60" id="generator_gross_load">272.6 MW</text>
    <text text-anchor="end" x="960" y="60" id="all_wind">1035.61 T/H</text>
    <text text-anchor="end" x="1450" y="60" id="coal_flow">169.27 T/H</text>
    <text text-anchor="end" x="1940" y="60" id="efficiency">84.06 %</text>

    <text text-anchor="end" x="470" y="210" id="burner_tilt_1u">50.04 °</text>
    <text text-anchor="end" x="960" y="210" id="burner_tilt_2u">50.16 °</text>
    <text text-anchor="end" x="1450" y="210" id="burner_tilt_3u">50.01 °</text>
    <text text-anchor="end" x="1940" y="210" id="burner_tilt_4u">50.02 °</text>

    <text text-anchor="end" x="470" y="300" id="burner_tilt_1l">50.14 °</text>
    <text text-anchor="end" x="960" y="300" id="burner_tilt_2l">49.68 °</text>
    <text text-anchor="end" x="1450" y="300" id="burner_tilt_3l">49.73 °</text>
    <text text-anchor="end" x="1940" y="300" id="burner_tilt_4l">50.11 °</text>
  </g>

  <text class="text-secondary fs-large" x="40" y="155">Burner Tilt Position:</text>

  <g class="mill">
    <rect x="200" y="420" width="200" height="80" />
    <rect x="200" y="620" width="200" height="80" />
    <rect x="200" y="820" width="200" height="80" />
    <rect x="200" y="1020" width="200" height="80" />
    <rect x="200" y="1220" width="200" height="80" />

    <!-- Label -->
    <text class="text-primary fs-large" text-anchor="middle" x="300" y="472">Mill A</text>
    <text class="text-secondary fs-normal" text-anchor="end" x="180" y="448"
      id="mill_a_coal_flow">0.07 T/H</text>
    <text class="text-secondary fs-normal" text-anchor="end" x="180" y="490"
      id="mill_a_inlet_temp">50.97 °C</text>

    <text class="text-primary fs-large" text-anchor="middle" x="300" y="672">Mill B</text>
    <text class="text-secondary fs-normal" text-anchor="end" x="180" y="648"
      id="mill_b_coal_flow">41.36 T/H</text>
    <text class="text-secondary fs-normal" text-anchor="end" x="180" y="690"
      id="mill_b_inlet_temp">297.9 °C</text>

    <text class="text-primary fs-large" text-anchor="middle" x="300" y="872">Mill C</text>
    <text class="text-secondary fs-normal" text-anchor="end" x="180" y="848"
      id="mill_c_coal_flow">43.86 T/H</text>
    <text class="text-secondary fs-normal" text-anchor="end" x="180" y="890"
      id="mill_c_inlet_temp">296.1 °C</text>

    <text class="text-primary fs-large" text-anchor="middle" x="300" y="1072">Mill D</text>
    <text class="text-secondary fs-normal" text-anchor="end" x="180" y="1048"
      id="mill_d_coal_flow">42.15 T/H</text>
    <text class="text-secondary fs-normal" text-anchor="end" x="180" y="1090"
      id="mill_d_inlet_temp">293.63 °C</text>

    <text class="text-primary fs-large" text-anchor="middle" x="300" y="1272">Mill E</text>
    <text class="text-secondary fs-normal" text-anchor="end" x="180" y="1248"
      id="mill_e_coal_flow">43.65 T/H</text>
    <text class="text-secondary fs-normal" text-anchor="end" x="180" y="1290"
      id="mill_e_inlet_temp">287.76 °C</text>
  </g>

  <g class="mill-to-furnace">
    <path d="M410 460 h220 L630 820 H680" />
    <circle class="particle" r="1" cx="0" cy="0">
      <animateMotion dur="1.42415s" repeatCount="indefinite" calcMode="spline" keySplines="0.8 0 0.2 1"
        path="M410 460 h220 L630 820 H680" />
    </circle>

    <path d="M410 660 h200 L610 840 H680" />
    <circle class="particle" r="1" cx="0" cy="0">
      <animateMotion dur="1.2144s" repeatCount="indefinite" calcMode="spline" keySplines="0.8 0 0.2 1"
        path="M410 660 h200 L610 840 H680" />
    </circle>

    <path d="M410 860 H680" />
    <circle class="particle" r="1" cx="0" cy="0">
      <animateMotion dur="0.7456s" repeatCount="indefinite" calcMode="spline" keySplines="0.8 0 0.2 1"
        path="M410 860 H680" />
    </circle>

    <path d="M410 1060 h200 L610 880 H680" />
    <circle class="particle" r="1" cx="0" cy="0">
      <animateMotion dur="1.3415s" repeatCount="indefinite" calcMode="spline" keySplines="0.8 0 0.2 1"
        path="M410 1060 h200 L610 880 H680" />
    </circle>

    <path d="M410 1260 h220 L630 900 H680" />
    <circle class="particle" r="1" cx="0" cy="0">
      <animateMotion dur="1.4844s" repeatCount="indefinite" calcMode="spline" keySplines="0.8 0 0.2 1"
        path="M410 1260 h220 L630 900 H680" />
    </circle>
  </g>

  <!-- Mill Outlet -->
  <g>
    <text class="text-secondary fs-normal" text-anchor="start" x="420" y="448"
      id="mill_a_pa_airflow">59.56 T/H</text>
    <text class="text-secondary fs-normal" text-anchor="start" x="420" y="488"
      id="mill_a_outlet_temp">51.38 °C</text>

    <text class="text-secondary fs-normal" text-anchor="start" x="420" y="648"
      id="mill_b_pa_airflow">92.95 T/H</text>
    <text class="text-secondary fs-normal" text-anchor="start" x="420" y="688"
      id="mill_b_outlet_temp">60.09 °C</text>

    <text class="text-secondary fs-normal" text-anchor="start" x="420" y="848"
      id="mill_c_pa_airflow">84.49 T/H</text>
    <text class="text-secondary fs-normal" text-anchor="start" x="420" y="888"
      id="mill_c_outlet_temp">58.42 °C</text>

    <text class="text-secondary fs-normal" text-anchor="start" x="420" y="1048"
      id="mill_d_pa_airflow">83.79 T/H</text>
    <text class="text-secondary fs-normal" text-anchor="start" x="420" y="1088"
      id="mill_d_outlet_temp">58.56 °C</text>

    <text class="text-secondary fs-normal" text-anchor="start" x="420" y="1248"
      id="mill_e_pa_airflow">91.14 T/H</text>
    <text class="text-secondary fs-normal" text-anchor="start" x="420" y="1288"
      id="mill_e_outlet_temp">58.69 °C</text>
  </g>

  <!-- Fan -->
  <g class="pump" id="paf-a">
    <text class="text-secondary fs-large" text-anchor="start" x="1390" y="460">PA Fan A</text>
    <text class="text-secondary fs-normal" text-anchor="start" x="1530" y="500"
      id="paf_a_motor_current">147.03 A</text>
    <text class="text-secondary fs-normal" text-anchor="start" x="1530" y="530"
      id="paf_a_damper_position">50.41 %</text>
    <path d="M1400 480 v50 l60 -12 h20 l30 12 v-50 l-30 12h-20z" />
    <rect x="1454" y="486" width="30" height="38" />
    <circle class="frame" cx="1428" cy="505" r="17" />
    <g class="fan">
      <path
        d="M 1426 502 c -6 -8 -5 -9 -2 -10 a 12 12 0 0 1 8 0 c 3 1 3 1 -3 9 q -1.7 2.4 -3 1z                m 5 1 c 8 -6 9 -5 10 -2 a 12 12 0 0 1 0 8 c -1 3 -1 3 -9 -3 q -2.4 -1.7 -1 -3z                m -1 5 c 6 8 5 9 2 10 a 12 12 0 0 1 -8 0 c -3 -2 -3 -2 3 -9 q 1.7 -2.4 3 -1z                m -5 -1 c -8 6 -9 5 -10 2 a 12 12 0 0 1 0 -8 c 1 -3 1 -3 9 3 q 2.4 1.7 1 3z " />
      <circle cx="1428" cy="505" r="2" />

      <animateTransform attributeName="transform" attributeType="XML" type="rotate" from="0 1428 505" to="360 1428 505"
        dur=".8s" repeatCount="indefinite" />
    </g>
  </g>

  <g class="pump" id="fdf-a">
    <text class="text-secondary fs-large" text-anchor="start" x="1490" y="580">FD Fan A</text>
    <text class="text-secondary fs-normal" text-anchor="start" x="1630" y="620"
      id="fdf_a_motor_current">25.86 A</text>
    <text class="text-secondary fs-normal" text-anchor="start" x="1630" y="650"
      id="fdf_a_damper_position">22.96%</text>
    <path d="M1500 600 v50 l60 -12 h20 l30 12 v-50 l-30 12h-20z" />
    <rect x="1554" y="606" width="30" height="38" />
    <circle class="frame" cx="1528" cy="625" r="17" />
    <g class="fan">
      <path
        d="M 1526 622 c -6 -8 -5 -9 -2 -10 a 12 12 0 0 1 8 0 c 3 1 3 1 -3 9 q -1.7 2.4 -3 1z                m 5 1 c 8 -6 9 -5 10 -2 a 12 12 0 0 1 0 8 c -1 3 -1 3 -9 -3 q -2.4 -1.7 -1 -3z                m -1 5 c 6 8 5 9 2 10 a 12 12 0 0 1 -8 0 c -3 -2 -3 -2 3 -9 q 1.7 -2.4 3 -1z                m -5 -1 c -8 6 -9 5 -10 2 a 12 12 0 0 1 0 -8 c 1 -3 1 -3 9 3 q 2.4 1.7 1 3z " />
      <circle cx="1528" cy="625" r="2" />

      <animateTransform attributeName="transform" attributeType="XML" type="rotate" from="0 1528 625" to="360 1528 625"
        dur=".8s" repeatCount="indefinite" />
    </g>
  </g>

  <g class="pump" id="idf-a">
    <text class="text-secondary fs-large" text-anchor="start" x="1580" y="730">ID Fan A</text>
    <text class="text-secondary fs-normal" text-anchor="start" x="1720" y="770"
      id="idf_a_motor_current">158.59 A</text>
    <text class="text-secondary fs-normal" text-anchor="start" x="1720" y="800"
      id="idf_a_damper_position">76.94 %</text>
    <path d="M 1700 750 v 50 l -60 -12 h -20 l -30 12 v -50 l 30 12 h 20 z" />
    <rect x="1614" y="756" width="30" height="38" />
    <circle class="frame" cx="1669" cy="775" r="17" />
    <g class="fan">
      <path
        d="M 1671 772 c 6 -8 5 -9 2 -10 a 12 12 90 0 0 -8 0 c -3 1 -3 1 3 9 q 1.7 2.4 3 1 z                 m -5 1 c -8 -6 -9 -5 -10 -2 a 12 12 90 0 0 0 8 c 1 3 1 3 9 -3 q 2.4 -1.7 1 -3 z                 m 1 5 c -6 8 -5 9 -2 10 a 12 12 90 0 0 8 0 c 3 -2 3 -2 -3 -9 q -1.7 -2.4 -3 -1 z                 m 5 -1 c 8 6 9 5 10 2 a 12 12 90 0 0 0 -8 c -1 -3 -1 -3 -9 3 q -2.4 1.7 -1 3 z " />
      <circle cx="1669" cy="775" r="2" />

      <animateTransform attributeName="transform" attributeType="XML" type="rotate" from="360 1669 775" to="0 1669 775"
        dur=".8s" repeatCount="indefinite" />
    </g>
  </g>

  <g class="pump" id="idf-b">
    <text class="text-secondary fs-large" text-anchor="start" x="1580" y="950">ID Fan B</text>
    <text class="text-secondary fs-normal" text-anchor="start" x="1720" y="990"
      id="idf_b_motor_current">159.67 A</text>
    <text class="text-secondary fs-normal" text-anchor="start" x="1720" y="1020"
      id="idf_b_damper_position">75.89 %</text>
    <path d="M 1700 970 v 50 l -60 -12 h -20 l -30 12 v -50 l 30 12 h 20 z" />
    <rect x="1614" y="976" width="30" height="38" />
    <circle class="frame" cx="1669" cy="995" r="17" />
    <g class="fan">
      <path
        d="M 1671 992 c 6 -8 5 -9 2 -10 a 12 12 90 0 0 -8 0 c -3 1 -3 1 3 9 q 1.7 2.4 3 1 z                 m -5 1 c -8 -6 -9 -5 -10 -2 a 12 12 90 0 0 0 8 c 1 3 1 3 9 -3 q 2.4 -1.7 1 -3 z                 m 1 5 c -6 8 -5 9 -2 10 a 12 12 90 0 0 8 0 c 3 -2 3 -2 -3 -9 q -1.7 -2.4 -3 -1 z                 m 5 -1 c 8 6 9 5 10 2 a 12 12 90 0 0 0 -8 c -1 -3 -1 -3 -9 3 q -2.4 1.7 -1 3 z " />
      <circle cx="1669" cy="995" r="2" />

      <animateTransform attributeName="transform" attributeType="XML" type="rotate" from="360 1669 995" to="0 1669 995"
        dur=".8s" repeatCount="indefinite" />
    </g>
  </g>

  <g class="pump enable" id="fdf-b">
    <text class="text-secondary fs-large" text-anchor="start" x="1490" y="1100">FD Fan B</text>
    <text class="text-secondary fs-normal" text-anchor="start" x="1630" y="1140"
      id="fdf_b_motor_current">25.8 A</text>
    <text class="text-secondary fs-normal" text-anchor="start" x="1630" y="1170"
      id="fdf_b_damper_position">23.1 %</text>
    <path d="M1500 1120 v50 l60 -12 h20 l30 12 v-50 l-30 12h-20z" />
    <rect x="1554" y="1126" width="30" height="38" />
    <circle class="frame" cx="1528" cy="1145" r="17" />
    <g class="fan">
      <path
        d="M 1526 1142 c -6 -8 -5 -9 -2 -10 a 12 12 0 0 1 8 0 c 3 1 3 1 -3 9 q -1.7 2.4 -3 1z                m 5 1 c 8 -6 9 -5 10 -2 a 12 12 0 0 1 0 8 c -1 3 -1 3 -9 -3 q -2.4 -1.7 -1 -3z                m -1 5 c 6 8 5 9 2 10 a 12 12 0 0 1 -8 0 c -3 -2 -3 -2 3 -9 q 1.7 -2.4 3 -1z                m -5 -1 c -8 6 -9 5 -10 2 a 12 12 0 0 1 0 -8 c 1 -3 1 -3 9 3 q 2.4 1.7 1 3z " />
      <circle cx="1528" cy="1145" r="2" />

      <animateTransform attributeName="transform" attributeType="XML" type="rotate" from="0 1528 1145"
        to="360 1528 1145" dur=".8s" repeatCount="indefinite" />
    </g>
  </g>

  <g class="pump" id="paf-b">
    <text class="text-secondary fs-large" text-anchor="start" x="1390" y="1220">PA Fan B</text>
    <text class="text-secondary fs-normal" text-anchor="start" x="1530" y="1260"
      id="paf_b_motor_current">147.03 A</text>
    <text class="text-secondary fs-normal" text-anchor="start" x="1530" y="1290"
      id="paf_b_damper_position">50.41 %</text>
    <path d="M1400 1240 v50 l60 -12 h20 l30 12 v-50 l-30 12h-20z" />
    <rect x="1454" y="1246" width="30" height="38" />
    <circle class="frame" cx="1428" cy="1265" r="17" />
    <g class="fan">
      <path
        d="M 1426 1262 c -6 -8 -5 -9 -2 -10 a 12 12 0 0 1 8 0 c 3 1 3 1 -3 9 q -1.7 2.4 -3 1z                m 5 1 c 8 -6 9 -5 10 -2 a 12 12 0 0 1 0 8 c -1 3 -1 3 -9 -3 q -2.4 -1.7 -1 -3z                m -1 5 c 6 8 5 9 2 10 a 12 12 0 0 1 -8 0 c -3 -2 -3 -2 3 -9 q 1.7 -2.4 3 -1z                m -5 -1 c -8 6 -9 5 -10 2 a 12 12 0 0 1 0 -8 c 1 -3 1 -3 9 3 q 2.4 1.7 1 3z " />
      <circle cx="1428" cy="1265" r="2" />

      <animateTransform attributeName="transform" attributeType="XML" type="rotate" from="0 1428 1265"
        to="360 1428 1265" dur=".8s" repeatCount="indefinite" />
    </g>
  </g>

  <!-- Air flow path -->
  <g class="airflow">
    <!-- FD Fan A -->
    <path class="cold" d="M1490, 625 h-230 V580 h-100" />
    <circle class="particle" r="1" cx="0" cy="0">
      <animateMotion dur=".62415s" repeatCount="indefinite" calcMode="spline" keySplines="0.8 0 0.2 1"
        path="M1490, 625 h-230 V580 h-100" />
    </circle>
    <path class="hot" d="M1080, 580 H820 v110" />
    <circle class="particle" r="1" cx="0" cy="0">
      <animateMotion dur=".42415s" repeatCount="indefinite" calcMode="spline" keySplines="0.8 0 0.2 1"
        path="M1080, 580 H820 v110" />
    </circle>

    <!-- FD Fan B -->
    <path class="cold" d="M1490, 1145 h-230 V1185 h-100" />
    <circle class="particle" r="1" cx="0" cy="0">
      <animateMotion dur=".4865s" repeatCount="indefinite" calcMode="spline" keySplines="0.8 0 0.2 1"
        path="M1490, 1145 h-230 V1185 h-100" />
    </circle>
    <path class="hot" d="M1080, 1185 H820 v-165" />
    <circle class="particle" r="1" cx="0" cy="0">
      <animateMotion dur=".42415s" repeatCount="indefinite" calcMode="spline" keySplines="0.8 0 0.2 1"
        path="M1080, 1185 H820 v-165" />
    </circle>

    <!-- Primary Cold Air to Mill -->
    <path class="cold" d="M1390,505 h-230 m100 0 v-80 H580 V1350 
                          M1390 1265 h-230 m100 0 v90 H250 v-45 
                          M580 555 H250 v-45 
                          M580 755 H250 v-45
                          M580 955 H250 v-45
                          M580 1155 H250 v-45 " />
    <circle class="particle" r="1" cx="0" cy="0">
      <animateMotion dur=".52415s" repeatCount="indefinite" calcMode="spline" keySplines="0.8 0 0.2 1"
        path="M1390,505 h-230" />
    </circle>
    <circle class="particle" r="1" cx="0" cy="0">
      <animateMotion dur=".42415s" repeatCount="indefinite" calcMode="spline" keySplines="0.8 0 0.2 1"
        path="M1390 1265 h-230" />
    </circle>
    <circle class="particle" r="1" cx="0" cy="0">
      <animateMotion dur="4.22415s" repeatCount="indefinite" calcMode="spline" keySplines="0.8 0 0.2 1"
        path="M1390,505 h-230 m100 0 v-80 H550 V1150 M1390 1265 h-230 m100 0 v90 H250 v-45               M580 555 H250 v-45  M580 755 H250 v-45 M580 955 H250 v-45 M580 1155 H250 v-45" />
    </circle>
    <circle class="particle" r="1" cx="0" cy="0">
      <animateMotion dur="6.5251s" repeatCount="indefinite" calcMode="spline" keySplines="0.8 0 0.2 1"
        path="M1390,505 h-230 m100 0 v-80 H550 V1150 M1390 1265 h-230 m100 0 v90 H250 v-45               M580 555 H250 v-45  M580 755 H250 v-45 M580 955 H250 v-45 M580 1155 H250 v-45" />
    </circle>
    <circle class="particle" r="1" cx="0" cy="0">
      <animateMotion dur="3.25156s" repeatCount="indefinite" calcMode="spline" keySplines="0.8 0 0.2 1"
        path="M1390,505 h-230 m100 0 v-80 H550 V1150 M1390 1265 h-230 m100 0 v90 H250 v-45               M580 555 H250 v-45  M580 755 H250 v-45 M580 955 H250 v-45 M580 1155 H250 v-45" />
    </circle>

    <!-- Primary Hot Air to Mill -->
    <path class="hot" d="M1080 505 H560 M560 380 V1400 M1080 1265 h-60 v40 H560 
                         M560 530 H350 v-20
                         M560 730 H350 v-20
                         M560 930 H350 v-20
                         M560 1130 H350 v-20
                         M560 1330 H350 v-20" />
    <circle class="particle" r="1" cx="0" cy="0">
      <animateMotion dur="4.22415s" repeatCount="indefinite" calcMode="spline" keySplines="0.8 0 0.2 1"
        path="M1080 505 H560 M560 380 V1400 M1080 1265 h-60 v40 H560 M560 530 H350 v-20 M560 730 H350 v-20 M560 930 H350 v-20 M560 1130 H350 v-20 M560 1330 H350 v-20" />
    </circle>
    <circle class="particle" r="1" cx="0" cy="0">
      <animateMotion dur="3.62415s" repeatCount="indefinite" calcMode="spline" keySplines="0.8 0 0.2 1"
        path="M1080 505 H560 M560 380 V1400 M1080 1265 h-60 v40 H560 M560 530 H350 v-20 M560 730 H350 v-20 M560 930 H350 v-20 M560 1130 H350 v-20 M560 1330 H350 v-20" />
    </circle>
    <circle class="particle" r="1" cx="0" cy="0">
      <animateMotion dur="3.2424s" repeatCount="indefinite" calcMode="spline" keySplines="0.8 0 0.2 1"
        path="M1080 505 H560 M560 380 V1400 M1080 1265 h-60 v40 H560 M560 530 H350 v-20 M560 730 H350 v-20 M560 930 H350 v-20 M560 1130 H350 v-20 M560 1330 H350 v-20" />
    </circle>

    <!-- Induced Air from Furnace -->
    <path class="cold" d="M1160 1110 h40 v-115 h50 v30 h155 v-30 h175 m-340 0 h10 v-30 h155 v30" />
    <path class="cold" d="M1160 660 h40 v115 h50 v30 h155 v-30 h175 m-340 0 h10 v-30 h155 v30" />

    <path class="hot" d="M960 820 h60 v-160 h60" />
    <circle class="particle" r="1" cx="0" cy="0">
      <animateMotion dur="2.4482s" repeatCount="indefinite" calcMode="spline" keySplines="0.8 0 0.2 1"
        path="M960 820 h60 v-160 h140 h40 v115 h50 v30 h155 v-30 h175" />
    </circle>
    <circle class="particle" r="1" cx="0" cy="0">
      <animateMotion dur="1.991315s" repeatCount="indefinite" calcMode="spline" keySplines="0.8 0 0.2 1"
        path="M960 820 h60 v-160 h140 h40 v115 h50 v-30 h155 v30 h175" />
    </circle>

    <path class="hot" d="M960 890 h60 v220 h60" />
    <circle class="particle" r="1" cx="0" cy="0">
      <animateMotion dur="2.78912s" repeatCount="indefinite" calcMode="spline" keySplines="0.8 0 0.2 1"
        path="M960 890 h60 v220 h140 h40 v-115 h50 v30 h155 v-30 h175" />
    </circle>
    <circle class="particle" r="1" cx="0" cy="0">
      <animateMotion dur="1.798453s" repeatCount="indefinite" calcMode="spline" keySplines="0.8 0 0.2 1"
        path="M960 890 h60 v220 h140 h40 v-115 h50 v-30 h155 v30 h175" />
    </circle>

    <!-- Induced Air to Stack -->
    <path class="cold" d="M1710 995 H1880 v-350 M1710 775 H1880" />
    <circle class="particle" r="1" cx="0" cy="0">
      <animateMotion dur="0.97513s" repeatCount="indefinite" calcMode="spline" keySplines="0.8 0 0.2 1"
        path="M1710 775 H1880 v-130" />
    </circle>
    <circle class="particle" r="1" cx="0" cy="0">
      <animateMotion dur="1.34141" repeatCount="indefinite" calcMode="spline" keySplines="0.8 0 0.2 1"
        path="M1710 995 H1880 v-350" />
    </circle>
  </g>

  <!-- Air Preheater -->
  <g class="air-preheater">
    <rect x="1090" y="480" width="60" height="200" />
    <rect x="1090" y="1090" width="60" height="200" />
    <text class="text-secondary fs-large" text-anchor="middle" x="1120" y="470">Air Preheater</text>
    <text class="text-secondary fs-large" text-anchor="middle" x="1120" y="1080">Air Preheater</text>
  </g>

  <!-- Economizer -->
  <g class="economizer">
    <rect x="1300" y="715" width="60" height="120" />
    <rect x="1300" y="935" width="60" height="120" />
    <text class="text-secondary fs-large" text-anchor="middle" x="1330" y="700">Economizer</text>
    <text class="text-secondary fs-large" text-anchor="middle" x="1330" y="920">Economizer</text>

    <text class="text-secondary fs-normal" text-anchor="start" x="930" y="640">O2:</text>
    <text class="text-secondary fs-normal" text-anchor="end" x="1070" y="640" id="excess_o2_a">1.21 %</text>
    <text class="text-secondary fs-normal" text-anchor="start" x="970" y="800">O2:</text>
    <text class="text-secondary fs-normal" text-anchor="start" x="1030" y="800" id="excess_o2_b">1.35 %</text>

    <text class="text-secondary fs-normal" text-anchor="start" x="970" y="930">O2:</text>
    <text class="text-secondary fs-normal" text-anchor="start" x="1030" y="930" id="excess_o2_c">2.84 %</text>
    <text class="text-secondary fs-normal" text-anchor="start" x="930" y="1140">O2:</text>
    <text class="text-secondary fs-normal" text-anchor="end" x="1070" y="1140" id="excess_o2_d">3.06 %</text>

  </g>

  <!-- Furnace -->
  <g class="furnace">
    <text class="text-secondary fs-normal" text-anchor="end" x="810" y="680">Sec. Air Flow: </text>
    <text class="text-secondary fs-normal" text-anchor="start" x="830" y="680"
      id="fdf_a_airflow">316.29 T/H</text>

    <text class="text-secondary fs-normal" text-anchor="end" x="810" y="1050">Sec. Air Flow: </text>
    <text class="text-secondary fs-normal" text-anchor="start" x="830" y="1050"
      id="fdf_b_airflow">313.82 T/H</text>

    <path class="path1"
      d="M720 700 l200 0 l50 50 l-30 30 l0 150 l30 30 l-50 50 l-200 0 l-50-50 l30 -30 l0 -150 -30 -30z" />
    <path class="path2" d="M730 740 l180 0 l30 30 l0 170 l-30 30 l-180 0 l-30 -30 l0 -170z" />
    <text class="text-primary fs-large" text-anchor="middle" x="820" y="850">Furnace</text>
    <text class="text-primary fs-normal" text-anchor="middle" x="820" y="880"
      id="furnace_pressure">-48.43 Pa</text>
  </g>

  <!-- Stack -->
  <g class="stack">
    <path
      d="M 1900 430 l 12.7624 210.1728 l -16.0968 0 l -6.9552 -214.8928 c 6.1456 0.9352 10.2896 2.6984 10.2896 4.72 z m -8.1824 210.1728 l -45.3104 0 l 12.7616 -210.1728 c 0 -2.9984 9.1184 -5.4304 20.3656 -5.4304 c 2.6016 0 5.0888 0.1296 7.3752 0.368 l 4.808 215.2352 z" />
  </g>
</svg>